<svg xmlns="http://www.w3.org/2000/svg" viewBox="0 0 64 64">
  <rect width="64" height="64" rx="16" fill="#120814"/>
  <rect x="1" y="1" width="62" height="62" rx="15" fill="none" stroke="#8a1f34" stroke-width="2"/>
  <g fill="none" stroke="#ff6b7a" stroke-linecap="round" stroke-linejoin="round" stroke-width="4">
    <path d="M32 12 20 19v14l12 7 12-7V19z"/>
    <path d="m20 33-12 7v14l12 7 12-7V40z"/>
    <path d="m44 33-12 7v14l12 7 12-7V40z"/>
    <path d="M32 12v14l12 7"/>
    <path d="M32 26 20 33"/>
    <path d="M20 47 8 40"/>
    <path d="m20 47 12 7"/>
    <path d="m44 47 12-7"/>
    <path d="m44 47-12 7"/>
  </g>
</svg>
