<svg xmlns="http://www.w3.org/2000/svg" viewBox="0 0 64 64">
  <rect width="64" height="64" rx="16" fill="#ffffff"/>
  <rect x="1" y="1" width="62" height="62" rx="15" fill="none" stroke="#dfe3e6" stroke-width="2"/>
  <circle cx="32" cy="32" r="23" fill="#fff0f0"/>
  <g fill="none" stroke-linecap="round" stroke-linejoin="round" stroke-width="4">
    <path stroke="#ee0000" d="M32 12 20 19v14l12 7 12-7V19z"/>
    <path stroke="#c9190b" d="m20 33-12 7v14l12 7 12-7V40z"/>
    <path stroke="#7b61ff" d="m44 33-12 7v14l12 7 12-7V40z"/>
    <path stroke="#ee0000" d="M32 12v14l12 7"/>
    <path stroke="#ee0000" d="M32 26 20 33"/>
    <path stroke="#c9190b" d="M20 47 8 40"/>
    <path stroke="#c9190b" d="m20 47 12 7"/>
    <path stroke="#7b61ff" d="m44 47 12-7"/>
    <path stroke="#7b61ff" d="m44 47-12 7"/>
  </g>
</svg>
